<svg width="22" height="22" viewBox="0 0 22 22" fill="none" xmlns="http://www.w3.org/2000/svg">
<path d="M9.88889 16L5.44444 11M5.44444 11L9.88889 6M5.44444 11H21M15.4444 16V17.25C15.4444 18.2446 15.0933 19.1984 14.4681 19.9017C13.843 20.6049 12.9952 21 12.1111 21H4.33333C3.44928 21 2.60143 20.6049 1.97631 19.9017C1.35119 19.1984 1 18.2446 1 17.25V4.75C1 3.75544 1.35119 2.80161 1.97631 2.09835C2.60143 1.39509 3.44928 1 4.33333 1H12.1111C12.9952 1 13.843 1.39509 14.4681 2.09835C15.0933 2.80161 15.4444 3.75544 15.4444 4.75V6" stroke="white" stroke-width="2" stroke-linecap="round" stroke-linejoin="round"/>
</svg>
